# Blender v2.76 (sub 0) OBJ File: 'magnifier.blend'
# www.blender.org
mtllib magnifier.mtl
o Cube.003_Cube.004
v 0.351547 0.226989 0.505000
v 0.351547 0.476989 0.505000
v 0.351547 0.226989 0.495000
v 0.351547 0.476989 0.495000
v 0.651547 0.226989 0.505000
v 0.651547 0.476989 0.505000
v 0.651547 0.226989 0.495000
v 0.651547 0.476989 0.495000
vn -1.000000 0.000000 0.000000
vn 0.000000 0.000000 -1.000000
vn 1.000000 0.000000 0.000000
vn 0.000000 0.000000 1.000000
vn 0.000000 -1.000000 0.000000
vn 0.000000 1.000000 0.000000
usemtl Material.004
f 2//1 4//1 3//1 1//1
f 4//2 8//2 7//2 3//2
f 8//3 6//3 5//3 7//3
f 6//4 2//4 1//4 5//4
f 1//5 3//5 7//5 5//5
f 6//6 8//6 4//6 2//6
o Cube.002_Cube.003
v 0.300000 0.525000 0.525000
v 0.300000 0.525000 0.475000
v 0.300000 0.175000 0.475000
v 0.300000 0.175000 0.525000
v 0.351547 0.226989 0.525000
v 0.351547 0.476989 0.525000
v 0.651547 0.476989 0.525000
v 0.700000 0.525000 0.525000
v 0.700000 0.175000 0.525000
v 0.651547 0.226989 0.525000
v 0.700000 0.525000 0.475000
v 0.351547 0.226989 0.475000
v 0.651547 0.226989 0.475000
v 0.651547 0.476989 0.475000
v 0.700000 0.175000 0.475000
v 0.351547 0.476989 0.475000
vn -1.000000 0.000000 0.000000
vn -0.000000 0.000000 1.000000
vn 0.000000 1.000000 0.000000
vn -0.000000 0.000000 -1.000000
vn 0.000000 -1.000000 0.000000
vn 1.000000 0.000000 0.000000
usemtl Material.003
f 9//7 10//7 11//7 12//7
f 12//8 13//8 14//8 15//8 16//8 9//8
f 12//8 17//8 16//8 15//8 18//8 13//8
f 16//9 19//9 10//9 9//9
f 11//10 20//10 21//10 22//10 19//10 23//10
f 11//10 10//10 19//10 22//10 24//10 20//10
f 12//11 11//11 23//11 17//11
f 19//12 16//12 17//12 23//12
f 14//12 13//12 20//12 24//12
f 15//11 14//11 24//11 22//11
f 13//9 18//9 21//9 20//9
f 22//7 21//7 18//7 15//7
o Cube.001
v 0.449965 0.000000 0.550035
v 0.449965 0.200000 0.550035
v 0.449965 0.000000 0.449965
v 0.449965 0.200000 0.449965
v 0.550035 0.000000 0.550035
v 0.550035 0.200000 0.550035
v 0.550035 0.000000 0.449965
v 0.550035 0.200000 0.449965
vn -1.000000 0.000000 0.000000
vn 0.000000 0.000000 -1.000000
vn 1.000000 0.000000 0.000000
vn 0.000000 0.000000 1.000000
vn 0.000000 -1.000000 0.000000
vn 0.000000 1.000000 0.000000
usemtl Material.002
f 26//13 28//13 27//13 25//13
f 28//14 32//14 31//14 27//14
f 32//15 30//15 29//15 31//15
f 30//16 26//16 25//16 29//16
f 25//17 27//17 31//17 29//17
f 30//18 32//18 28//18 26//18
o Cube
v 0.650000 -0.010000 0.350000
v 0.650000 -0.010000 0.650000
v 0.350000 -0.010000 0.650000
v 0.350000 -0.010000 0.350000
v 0.650000 0.010000 0.350000
v 0.650000 0.010000 0.650000
v 0.350000 0.010000 0.650000
v 0.350000 0.010000 0.350000
vn 0.000000 -1.000000 -0.000000
vn 0.000000 1.000000 0.000000
vn 1.000000 -0.000000 0.000000
vn -0.000000 -0.000000 1.000000
vn -1.000000 -0.000000 -0.000000
vn 0.000000 0.000000 -1.000000
usemtl Material.001
f 33//19 34//19 35//19 36//19
f 37//20 40//20 39//20 38//20
f 33//21 37//21 38//21 34//21
f 34//22 38//22 39//22 35//22
f 35//23 39//23 40//23 36//23
f 37//24 33//24 36//24 40//24
