# Blender v2.76 (sub 0) OBJ File: 'magnifier_stand.blend'
# www.blender.org
mtllib magnifier_stand.mtl
o Solid.001
v -0.500000 1.080000 0.500000
v -0.028595 0.013333 0.500000
v -0.735702 0.013333 0.091752
v -0.735702 0.013333 0.908248
vt 0.000000 0.000000
vt 1.000000 0.000000
vt 1.000000 1.000000
vn 0.488200 0.215800 -0.845600
vn -0.976400 0.215800 0.000000
vn 0.488200 0.215800 0.845600
vn 0.000000 -1.000000 0.000000
usemtl Material
s off
f 1/1/1 2/2/1 3/3/1
f 1/1/2 3/2/2 4/3/2
f 1/1/3 4/2/3 2/3/3
f 2/1/4 4/2/4 3/3/4
