# Blender v2.76 (sub 0) OBJ File: 'mirror_blender.blend'
# www.blender.org
mtllib mirror_pad.mtl
o Plane_Plane.001
v -1.000000 0.969533 -0.780392
v 1.000000 0.969533 -0.780392
v -1.000000 2.347337 0.669318
v 1.000000 2.347337 0.669318
v -1.000000 0.852663 -0.669318
v 1.000000 0.852663 -0.669318
v -1.000000 2.230467 0.780392
v 1.000000 2.230467 0.780392
vt 0.000000 0.000000
vt 1.000000 0.000000
vt 1.000000 1.000000
vt 0.000000 1.000000
vn -1.000000 0.000000 0.000000
vn 0.000000 0.688900 0.724900
vn 0.000000 -0.688900 -0.724900
vn 1.000000 0.000000 0.000000
vn 0.000000 0.724900 -0.688900
vn 0.000000 -0.724900 0.688900
usemtl None
s off
f 3/1/1 1/2/1 5/3/1 7/4/1
f 4/1/2 3/2/2 7/3/2 8/4/2
f 1/1/3 2/2/3 6/3/3 5/4/3
f 2/1/4 4/2/4 8/3/4 6/4/4
usemtl None_mirrorface.png
f 1/1/5 3/2/5 4/3/5 2/4/5
f 5/1/6 6/2/6 8/3/6 7/4/6
