# Blender v2.76 (sub 0) OBJ File: 'mirror_stand.blend'
# www.blender.org
mtllib mirror_stand.mtl
o Cube
v 0.596399 -0.001475 0.402406
v 0.594659 -0.000693 0.602397
v 0.394679 0.001531 0.600648
v 0.396419 0.000748 0.400657
v 0.605321 0.798469 0.399352
v 0.603581 0.799252 0.599343
v 0.403601 0.801476 0.597594
v 0.405341 0.800693 0.397603
vn -0.011200 -0.999900 0.003800
vn 0.011200 0.999900 -0.003800
vn 0.999900 -0.011100 0.008700
vn -0.008700 0.003900 1.000000
vn -0.999900 0.011100 -0.008700
vn 0.008700 -0.003900 -1.000000
usemtl Material.001
f 1//1 2//1 3//1 4//1
f 5//2 8//2 7//2 6//2
f 1//3 5//3 6//3 2//3
f 2//4 6//4 7//4 3//4
f 3//5 7//5 8//5 4//5
f 5//6 1//6 4//6 8//6
