# Blender v2.76 (sub 0) OBJ File: 'mirror_blender.blend'
# www.blender.org
mtllib mirror_stand.mtl
o Cube_Cube.001
v -0.247190 0.014583 0.236908
v -0.247190 0.508963 0.236908
v -0.247190 0.014583 -0.257472
v -0.247190 0.508963 -0.257472
v 0.247190 0.014583 0.236908
v 0.247190 0.508963 0.236908
v 0.247190 0.014583 -0.257472
v 0.247190 0.508963 -0.257472
v -0.247190 0.014583 0.236908
v -0.247190 0.508963 0.236908
v -0.247190 0.014583 -0.257472
v -0.247190 0.508963 -0.257472
v 0.247190 0.014583 0.236908
v 0.247190 0.508963 0.236908
v 0.247190 0.014583 -0.257472
v 0.247190 0.508963 -0.257472
v -0.247190 1.731237 0.236908
v -0.247190 1.410691 -0.257472
v 0.247190 1.731237 0.236908
v 0.247190 1.410691 -0.257472
vn 1.000000 0.000000 0.000000
vn 0.000000 0.000000 1.000000
vn -1.000000 0.000000 0.000000
vn 0.000000 0.000000 -1.000000
vn 0.000000 1.000000 0.000000
vn 0.000000 -1.000000 0.000000
vn 0.000000 0.839100 -0.544000
usemtl None
s off
f 2//1 1//1 3//1 4//1
f 4//2 3//2 7//2 8//2
f 8//3 7//3 5//3 6//3
f 6//4 5//4 1//4 2//4
f 1//5 5//5 7//5 3//5
f 6//6 2//6 4//6 8//6
f 10//3 12//3 11//3 9//3
f 12//4 16//4 15//4 11//4
f 16//1 14//1 13//1 15//1
f 14//2 10//2 9//2 13//2
f 9//6 11//6 15//6 13//6
f 14//1 16//1 20//1 19//1
f 19//7 20//7 18//7 17//7
f 12//3 10//3 17//3 18//3
f 10//2 14//2 19//2 17//2
f 16//4 12//4 18//4 20//4
